<svg xmlns="http://www.w3.org/2000/svg" xml:space="preserve" width="560" height="159" data-id="lg_i723JqIjOd0nVCdqif" data-version="1" viewBox="720 0 560 159"><g data-padding="20"><g transform="translate(10 2.84)scale(.96429)"><rect width="405.651" height="158.358" x="423.589" y="-399.525" fill="none" rx="0" ry="0" transform="translate(477.67 400)"/><path fill="#001f3f" d="M911.274 41.214q0-6.31 2.81-11.04 2.81-4.74 7.35-7.44 4.55-2.69 9.86-2.69 3.85 0 7.04 1 3.2 1 5.82 2.81t4.46 4.2v-8.63q-3.38-3-7.39-4.46-4-1.47-9.93-1.47-5.62 0-10.51 2.05-4.89 2.04-8.59 5.77-3.69 3.73-5.77 8.82-2.08 5.08-2.08 11.08 0 6.01 2.08 11.09t5.77 8.82q3.7 3.73 8.59 5.77t10.51 2.04q5.93 0 9.93-1.46 4.01-1.46 7.39-4.46v-8.63q-1.84 2.39-4.46 4.2t-5.82 2.81q-3.19 1-7.04 1-5.31 0-9.86-2.7-4.54-2.69-7.35-7.46-2.81-4.78-2.81-11.02m55.05-26.95h-6.54v36.19q0 4.01 1.27 7.4 1.27 3.38 3.7 5.85 2.42 2.46 5.81 3.85 3.39 1.38 7.55 1.38 4.15 0 7.54-1.38 3.39-1.39 5.81-3.85 2.43-2.47 3.7-5.85 1.27-3.39 1.27-7.4v-36.19h-6.54v36.19q0 5.55-3.01 8.94-3 3.38-8.77 3.38-5.78 0-8.78-3.38-3.01-3.39-3.01-8.94Zm58.99 27.34h-7.32l18.48 26.56h8.09Zm-10.4-27.34h-6.54v53.9h6.54Zm-2.92 0v5.78h11.01q3.46 0 6.12 1.23 2.65 1.23 4.16 3.54 1.5 2.31 1.5 5.62 0 3.32-1.5 5.63-1.51 2.31-4.16 3.54-2.66 1.23-6.12 1.23h-11.01v5.77h11.01q5.23 0 9.35-1.96t6.55-5.62q2.42-3.66 2.42-8.59 0-5-2.42-8.62-2.43-3.62-6.55-5.58-4.12-1.97-9.35-1.97Zm56.44 27.34h-7.32l18.48 26.56h8.09Zm-10.4-27.34h-6.54v53.9h6.54Zm-2.92 0v5.78h11.01q3.46 0 6.12 1.23 2.65 1.23 4.16 3.54 1.5 2.31 1.5 5.62 0 3.32-1.5 5.63-1.51 2.31-4.16 3.54-2.66 1.23-6.12 1.23h-11.01v5.77h11.01q5.23 0 9.35-1.96t6.55-5.62q2.42-3.66 2.42-8.59 0-5-2.42-8.62-2.43-3.62-6.55-5.58-4.12-1.97-9.35-1.97Zm43.12 47.74v6.16h27.18v-6.16Zm0-47.74v6.16h27.18v-6.16Zm0 21.56v6.16h25.64v-6.16Zm2.92-21.56h-6.54v53.9h6.54Zm83.15 0h-6.54v40.12l-40.81-42.81v56.59h6.54v-40.11l40.81 42.81Zm16.18 26.95q0-6.31 2.81-11.04 2.81-4.74 7.36-7.44 4.54-2.69 9.85-2.69 3.85 0 7.05 1 3.19 1 5.81 2.81t4.47 4.2v-8.63q-3.39-3-7.4-4.46-4-1.47-9.93-1.47-5.62 0-10.51 2.05-4.89 2.04-8.58 5.77-3.7 3.73-5.78 8.82-2.08 5.08-2.08 11.08 0 6.01 2.08 11.09t5.78 8.82q3.69 3.73 8.58 5.77t10.51 2.04q5.93 0 9.93-1.46 4.01-1.46 7.4-4.46v-8.63q-1.85 2.39-4.47 4.2t-5.81 2.81q-3.2 1-7.05 1-5.31 0-9.85-2.7-4.55-2.69-7.36-7.46-2.81-4.78-2.81-11.02m85.55-26.95h-7.32l-13.93 24.95-13.86-24.95h-7.32l17.94 30.73v23.17h6.55v-23.25Zm-316.64 71.35-14.01 39.66-16.02-42.35-15.7 42.35-14.33-39.66h-7.31l21.17 56.6 16.17-41.89 16.17 41.89 21.18-56.6Zm17.87 21.56v6.16h36.96v-6.16Zm39.11-21.56h-6.54v53.9h6.54Zm-36.19 0h-6.54v53.9h6.54Zm55.07 0h-6.55v53.9h6.55Zm14.32 37.58-5.23 3.54q1.77 3.54 4.58 6.66t6.54 5.01q3.74 1.88 8.13 1.88 3.23 0 6.19-1.08 2.97-1.07 5.32-3.08 2.35-2 3.69-4.85 1.35-2.85 1.35-6.39 0-3.69-1.31-6.35t-3.35-4.54q-2.04-1.89-4.43-3.12-2.38-1.23-4.54-2-4.7-1.62-7.43-3.28-2.73-1.65-3.89-3.54-1.15-1.88-1.15-4.12 0-2.62 2-4.73 2-2.12 6.39-2.12 3.16 0 5.35 1.23 2.2 1.23 3.74 3.16 1.54 1.92 2.54 3.93l5.62-3.24q-1.31-2.85-3.62-5.43t-5.58-4.23q-3.28-1.66-7.66-1.66-4.55 0-8.09 1.81t-5.54 4.97q-2.01 3.16-2.01 7.16 0 3.7 1.43 6.24 1.42 2.54 3.66 4.27 2.23 1.73 4.69 2.85 2.47 1.12 4.47 1.81 3.08 1.08 5.81 2.42 2.74 1.35 4.43 3.51 1.69 2.15 1.69 5.77 0 3.7-2.61 6.09-2.62 2.38-6.93 2.38-3.24 0-5.78-1.38-2.54-1.39-4.58-3.85-2.04-2.47-3.89-5.7m46.73-37.58h-6.54v53.9h6.54Zm-2.93 0v6.16h11.02q5.23 0 8.5 2.51 3.28 2.5 3.28 7.5 0 4.93-3.28 7.47-3.27 2.54-8.5 2.54h-11.02v6.16h11.02q5.23 0 9.35-1.96t6.55-5.62q2.42-3.66 2.42-8.59 0-5-2.42-8.62-2.43-3.62-6.55-5.58-4.12-1.97-9.35-1.97Zm42.21 47.74v6.16h27.18v-6.16Zm0-47.74v6.16h27.18v-6.16Zm0 21.56v6.16h25.64v-6.16Zm2.93-21.56h-6.55v53.9h6.55Zm52.73 27.34h-7.31l18.48 26.56h8.08Zm-10.39-27.34h-6.55v53.9h6.55Zm-2.93 0v5.78h11.01q3.47 0 6.12 1.23 2.66 1.23 4.16 3.54t1.5 5.62-1.5 5.62-4.16 3.55q-2.65 1.23-6.12 1.23h-11.01v5.77h11.01q5.24 0 9.36-1.96t6.54-5.62q2.43-3.66 2.43-8.59 0-5-2.43-8.62-2.42-3.62-6.54-5.58-4.12-1.97-9.36-1.97Zm43.13 47.74v6.16h27.18v-6.16Zm0-47.74v6.16h27.18v-6.16Zm0 21.56v6.16h25.64v-6.16Zm2.93-21.56h-6.55v53.9h6.55Zm52.74 27.34h-7.31l18.48 26.56h8.08Zm-10.39-27.34h-6.55v53.9h6.55Zm-2.93 0v5.78h11.01q3.47 0 6.12 1.23 2.66 1.23 4.16 3.54t1.5 5.62-1.5 5.62-4.16 3.55q-2.65 1.23-6.12 1.23h-11.01v5.77h11.01q5.24 0 9.36-1.96t6.54-5.62q2.43-3.66 2.43-8.59 0-5-2.43-8.62-2.42-3.62-6.54-5.58-4.12-1.97-9.36-1.97Zm-509.2-30.77c7-7.7 17.01-12.11 27.44-12.11 7.42 0 14.56 2.17 20.51 6.16l-2.45 3.71c-.28.42-.28.91-.07 1.4.21.42.63.77 1.12.77l11.06 1.26c1.12.14 1.96-1.12 1.33-2.1l-4.48-11.06c-.21-.49-.63-.84-1.12-.84-.49-.07-.98.21-1.26.63l-2.59 3.92c-6.44-4.34-14-6.65-22.05-6.65-11.27 0-21.98 4.76-29.47 13.09-.49.56-.49 1.47.07 1.96s1.47.49 1.96-.14m58.87 51.8c.49-.56.49-1.47-.07-1.96s-1.47-.49-1.96.07a37.6 37.6 0 0 1-27.79 12.18c-7.49 0-14.7-2.17-20.79-6.16l2.45-3.71c.28-.42.28-.91.07-1.4-.21-.42-.63-.77-1.12-.77l-11.2-1.26c-.49-.07-.98.14-1.26.56s-.35.91-.21 1.4l4.62 11.2c.21.49.63.84 1.19.84h.14c.49 0 .91-.21 1.19-.63l2.59-3.92a39.9 39.9 0 0 0 22.33 6.65c11.34 0 22.26-4.76 29.82-13.09m-8.75-48.51c-11.97 0-21.7 9.73-21.7 21.7s9.73 21.7 21.7 21.7 21.7-9.73 21.7-21.7-9.73-21.7-21.7-21.7m-4.76 23.1h9.66a1.4 1.4 0 1 1 0 2.8h-8.82c1.47 2.94 4.34 4.9 7.63 4.9.35 0 .7 0 1.05-.07.77-.07 1.47.42 1.54 1.19s-.42 1.47-1.19 1.54c-.42.07-.91.07-1.4.07-4.9 0-9.03-3.22-10.64-7.7h-2.17c-.77 0-1.4-.63-1.4-1.4s.63-1.4 1.4-1.4h1.47c-.07-.42-.07-.84-.07-1.33s0-.91.07-1.4h-1.47c-.77 0-1.4-.63-1.4-1.4s.63-1.4 1.4-1.4h2.17c1.61-4.48 5.81-7.7 10.64-7.7.42 0 .91 0 1.33.07.77.07 1.33.77 1.19 1.54-.07.77-.77 1.33-1.54 1.19-.35-.07-.63-.07-.98-.07-3.29 0-6.16 1.96-7.63 4.9h8.82a1.4 1.4 0 1 1 0 2.8h-9.66c-.07.49-.14.91-.14 1.4 0 .56.07.98.14 1.47m-42.84-7.77c-.07 0-.14 0-.21.07-1.33.35-2.66 1.82-1.82 3.22.49.77 1.26 1.12 2.1 1.33v-4.62Zm3.57 8.47c-.28-.07-.56-.21-.77-.28v5.32c.84-.14 1.61-.49 2.1-1.12 1.19-1.4.42-3.29-1.33-3.92"/><path fill="#001f3f" d="M768.124 101.534c11.97 0 21.7-9.73 21.7-21.7s-9.73-21.7-21.7-21.7-21.7 9.73-21.7 21.7 9.73 21.7 21.7 21.7m-6.86-18.06c.42-.84 1.61-.7 2.17-.07.49.63.7 1.4 1.19 2.03s1.26 1.05 2.1 1.33v-5.81c-1.47-.35-3.01-.84-4.13-1.96-1.05-1.12-1.19-2.8-.91-4.27.49-2.1 2.31-3.29 4.27-3.85.21-.07.49-.14.7-.14v-2.8a1.4 1.4 0 0 1 2.8 0v2.94c.98.14 1.89.42 2.73.98.7.42 1.33.98 1.82 1.68.84 1.12 1.12 2.17.98 3.01-.07.7-.84 1.12-1.47.91-.63-.14-1.05-.77-1.33-1.33a4.4 4.4 0 0 0-1.4-1.96c-.42-.28-.84-.49-1.33-.63v5.18c.56.14 1.12.35 1.68.49 2.66.77 4.2 3.08 3.85 5.74-.21 1.4-1.12 2.66-2.31 3.36-.98.63-2.1.98-3.22 1.12v2.31a1.4 1.4 0 1 1-2.8 0v-2.24c-1.96-.28-3.5-1.19-4.55-2.66-.28-.35-.49-.77-.7-1.19-.21-.56-.42-1.54-.14-2.17"/><path fill="#001f3f" stroke="#001f3f" stroke-width="4.2" d="M867.794.168v155.991"/></g><path fill="transparent" stroke="transparent" d="M720 0h560v159H720z"/></g></svg>